#define max_toggled_width 16
#define max_toggled_height 16
static unsigned char max_toggled_bits[] = {
   0x00, 0x00, 0x00, 0x00, 0x00, 0x00, 0xe0, 0x3f, 0xe0, 0x3f, 0x60, 0x30,
   0xfc, 0x37, 0xfc, 0x37, 0x0c, 0x36, 0x0c, 0x3e, 0x0c, 0x3e, 0xfc, 0x07,
   0xfc, 0x07, 0x00, 0x00, 0x00, 0x00, 0x00, 0x00 };
