#define desk_width 16
#define desk_height 16
static unsigned char desk_bits[] = {
   0x00, 0x00, 0x00, 0x00, 0x00, 0x00, 0x00, 0x01, 0x00, 0x03, 0x00, 0x07,
   0x80, 0x0f, 0xe0, 0x1f, 0xe0, 0x03, 0xc0, 0x01, 0xa0, 0x01, 0x10, 0x00,
   0x08, 0x00, 0x00, 0x00, 0x00, 0x00, 0x00, 0x00 };
